<svg width="93" height="115" viewBox="0 0 93 115" fill="none" xmlns="http://www.w3.org/2000/svg">
<path d="M40.7917 23.2498C40.7917 20.1103 43.3604 17.5415 46.5 17.5415C49.6396 17.5415 52.2083 20.1103 52.2083 23.2498C52.2083 26.3894 49.6396 28.9582 46.5 28.9582C43.3604 28.9582 40.7917 26.3894 40.7917 23.2498ZM23.6667 40.3748C26.8062 40.3748 29.375 37.8061 29.375 34.6665C29.375 31.5269 26.8062 28.9582 23.6667 28.9582C20.5271 28.9582 17.9583 31.5269 17.9583 34.6665C17.9583 37.8061 20.5271 40.3748 23.6667 40.3748ZM12.25 17.5415C12.25 14.4019 9.68125 11.8332 6.54166 11.8332C3.40208 11.8332 0.833328 14.4019 0.833328 17.5415C0.833328 20.6811 3.40208 23.2498 6.54166 23.2498C9.68125 23.2498 12.25 20.6811 12.25 17.5415ZM29.375 11.8332C32.5146 11.8332 35.0833 9.26442 35.0833 6.12484C35.0833 2.98525 32.5146 0.416504 29.375 0.416504C26.2354 0.416504 23.6667 2.98525 23.6667 6.12484C23.6667 9.26442 26.2354 11.8332 29.375 11.8332ZM63.625 11.8332C66.7646 11.8332 69.3333 9.26442 69.3333 6.12484C69.3333 2.98525 66.7646 0.416504 63.625 0.416504C60.4854 0.416504 57.9167 2.98525 57.9167 6.12484C57.9167 9.26442 60.4854 11.8332 63.625 11.8332ZM86.4583 11.8332C83.3187 11.8332 80.75 14.4019 80.75 17.5415C80.75 20.6811 83.3187 23.2498 86.4583 23.2498C89.5979 23.2498 92.1667 20.6811 92.1667 17.5415C92.1667 14.4019 89.5979 11.8332 86.4583 11.8332ZM63.625 34.6665C63.625 37.8061 66.1937 40.3748 69.3333 40.3748C72.4729 40.3748 75.0417 37.8061 75.0417 34.6665C75.0417 31.5269 72.4729 28.9582 69.3333 28.9582C66.1937 28.9582 63.625 31.5269 63.625 34.6665ZM83.6042 63.6077C83.6042 67.6607 82.12 71.5423 79.6654 74.6248C82.0629 77.7073 83.6042 81.589 83.6042 85.6419C83.6042 95.5173 75.4412 103.566 65.5658 103.566L63.1112 103.395C60.4283 109.959 53.9779 114.583 46.5 114.583C39.0221 114.583 32.5717 109.959 29.8887 103.395L27.4342 103.566C17.5017 103.566 9.39583 95.5173 9.39583 85.6419C9.39583 81.589 10.88 77.7073 13.3346 74.6248C10.9371 71.5423 9.39583 67.6607 9.39583 63.6077C9.39583 53.7323 17.5587 45.6836 27.4342 45.6836L29.8887 45.8548C32.5717 39.2903 39.0221 34.6665 46.5 34.6665C53.9779 34.6665 60.4283 39.2903 63.1112 45.8548L65.5658 45.6836C75.4412 45.6836 83.6042 53.7323 83.6042 63.6077ZM20.8125 63.6077C20.8125 66.0623 22.3537 68.3457 24.6371 69.4873L29.6604 71.7707C30.3454 67.6607 32.5717 64.0073 35.7112 61.4386L31.0875 58.2419C30.06 57.4998 28.8042 57.1003 27.4342 57.1003C23.8379 57.1003 20.8125 60.0115 20.8125 63.6077ZM35.7683 87.8111C32.5717 85.2423 30.3454 81.589 29.6604 77.479L24.6371 79.7623C22.3537 80.904 20.8125 83.1873 20.8125 85.5848C20.8125 89.1811 23.8379 92.0923 27.4342 92.0923C28.7471 92.0923 30.0029 91.7498 31.1446 90.9507L35.7683 87.8111ZM53.0075 96.8873L52.3796 90.6652C50.5529 91.3502 48.555 91.7498 46.5 91.7498C44.445 91.7498 42.5042 91.3502 40.7917 90.6652L39.9925 96.8873C40.1067 100.312 42.9608 103.166 46.5 103.166C50.0392 103.166 52.8933 100.312 53.0075 96.8873ZM53.0075 52.3623C52.8933 48.9373 50.0392 46.0832 46.5 46.0832C42.9608 46.0832 40.1067 48.9373 39.9925 52.3623L40.7917 58.5844C42.5042 57.8994 44.445 57.4998 46.5 57.4998C48.555 57.4998 50.5529 57.8994 52.3796 58.5844L53.0075 52.3623ZM72.1875 85.5848C72.1875 83.1873 70.6462 80.7898 68.3629 79.7053L63.3396 77.3078C62.6546 81.5319 60.4283 85.1852 57.2887 87.754L61.9125 91.0078C62.94 91.7498 64.1958 92.1494 65.5658 92.1494C69.1621 92.1494 72.1875 89.2382 72.1875 85.5848ZM72.1875 63.6077C72.1875 60.0115 69.1621 57.1003 65.5658 57.1003C64.2529 57.1003 62.9971 57.4998 61.8554 58.2419L57.1746 61.4386C60.3712 64.0073 62.5975 67.6607 63.2825 71.7707L68.3058 69.4873C70.6462 68.3457 72.1875 66.0623 72.1875 63.6077Z" fill="#00CB3B"/>
</svg>
