<svg width="97" height="98" viewBox="0 0 97 98" fill="none" xmlns="http://www.w3.org/2000/svg">
<path d="M51.382 0.749242C51.0534 0.723375 50.7239 0.787613 50.429 0.935045C50.1342 1.08248 49.8851 1.30752 49.7086 1.58596C44.9207 8.83752 44.7813 15.4848 44.7813 15.5313C44.7736 16.0889 44.8931 16.6409 45.1306 17.1454C45.3681 17.65 45.7174 18.0938 46.1519 18.4433C46.5865 18.7927 47.095 19.0386 47.6387 19.1623C48.1825 19.2859 48.7473 19.2842 49.2902 19.1571C51.0102 18.8317 52.1723 17.2047 52.2188 15.4383C52.2358 14.9271 52.3568 14.4247 52.5744 13.9617C52.792 13.4988 53.1016 13.0851 53.4844 12.7458C53.8672 12.4065 54.3151 12.1488 54.8008 11.9883C55.2865 11.8278 55.7998 11.768 56.3094 11.8125C57.2458 11.9274 58.1064 12.3855 58.7246 13.0982C59.3428 13.8108 59.6748 14.7275 59.6563 15.6707C59.6471 17.1358 59.3495 18.5847 58.7804 19.9347C58.2112 21.2848 57.3818 22.5095 56.3394 23.539C55.2969 24.5684 54.0619 25.3825 52.7049 25.9347C51.3479 26.4869 49.8953 26.7664 48.4303 26.7572C46.9652 26.7481 45.5163 26.4505 44.1663 25.8813C42.8162 25.3122 41.5915 24.4828 40.562 23.4404C38.4829 21.3351 37.3253 18.4901 37.3438 15.5313C37.3438 15.2524 37.3902 10.511 39.8539 4.37502C39.9815 4.05991 40.0202 3.71586 39.9658 3.38028C39.9115 3.0447 39.7662 2.73044 39.5458 2.47166C39.3254 2.21287 39.0382 2.01948 38.7155 1.9125C38.3928 1.80551 38.047 1.78904 37.7156 1.86487C26.7621 4.38443 17.0273 10.6383 10.1822 19.5531C3.3371 28.4678 -0.191277 39.4873 0.202735 50.7199C1.08594 76.3328 22.0969 96.9254 47.7098 97.3438C60.3463 97.5472 72.5601 92.7941 81.7351 84.1025C90.9101 75.4109 96.3167 63.4719 96.7968 50.8429C97.2769 38.2138 92.7924 25.8988 84.3038 16.5357C75.8152 7.17256 63.9976 1.50583 51.382 0.749242ZM26.1875 49C26.1875 47.8968 26.5147 46.8183 27.1276 45.901C27.7405 44.9837 28.6117 44.2687 29.631 43.8465C30.6502 43.4243 31.7718 43.3138 32.8539 43.5291C33.9359 43.7443 34.9298 44.2756 35.71 45.0557C36.4901 45.8358 37.0213 46.8297 37.2366 47.9118C37.4518 48.9938 37.3413 50.1154 36.9191 51.1347C36.4969 52.1539 35.782 53.0251 34.8647 53.6381C33.9473 54.251 32.8689 54.5781 31.7656 54.5781C30.2862 54.5781 28.8674 53.9905 27.8213 52.9444C26.7752 51.8983 26.1875 50.4794 26.1875 49ZM62.9102 70.7082C58.6336 73.5291 53.6231 75.0328 48.5 75.0328C43.3769 75.0328 38.3664 73.5291 34.0898 70.7082C33.2797 70.1518 32.7192 69.3006 32.5281 68.3365C32.337 67.3724 32.5305 66.3718 33.0672 65.5485C33.3351 65.1387 33.6813 64.7859 34.086 64.5103C34.4906 64.2347 34.9456 64.0416 35.425 63.9423C35.9044 63.843 36.3987 63.8393 36.8795 63.9314C37.3604 64.0236 37.8183 64.2098 38.227 64.4793C41.2683 66.5099 44.8431 67.5936 48.5 67.5936C52.1569 67.5936 55.7317 66.5099 58.7731 64.4793C59.1817 64.2098 59.6396 64.0236 60.1205 63.9314C60.6013 63.8393 61.0956 63.843 61.575 63.9423C62.0544 64.0416 62.5094 64.2347 62.914 64.5103C63.3187 64.7859 63.6649 65.1387 63.9328 65.5485C64.4695 66.3718 64.663 67.3724 64.4719 68.3365C64.2808 69.3006 63.7203 70.1518 62.9102 70.7082ZM65.2344 54.5781C64.1311 54.5781 63.0527 54.251 62.1353 53.6381C61.218 53.0251 60.5031 52.1539 60.0809 51.1347C59.6587 50.1154 59.5482 48.9938 59.7634 47.9118C59.9787 46.8297 60.5099 45.8358 61.29 45.0557C62.0702 44.2756 63.0641 43.7443 64.1461 43.5291C65.2282 43.3138 66.3498 43.4243 67.369 43.8465C68.3883 44.2687 69.2595 44.9837 69.8724 45.901C70.4853 46.8183 70.8125 47.8968 70.8125 49C70.8125 50.4794 70.2248 51.8983 69.1787 52.9444C68.1326 53.9905 66.7138 54.5781 65.2344 54.5781Z" fill="#00CB3B"/>
</svg>
