<svg width="96" height="96" viewBox="0 0 96 96" fill="none" xmlns="http://www.w3.org/2000/svg">
<path d="M77.3333 48C75.2116 48 73.1768 47.1571 71.6765 45.6569C70.1762 44.1566 69.3333 42.1217 69.3333 40C69.3333 37.8783 70.1762 35.8434 71.6765 34.3431C73.1768 32.8429 75.2116 32 77.3333 32C79.4551 32 81.4899 32.8429 82.9902 34.3431C84.4905 35.8434 85.3333 37.8783 85.3333 40C85.3333 42.1217 84.4905 44.1566 82.9902 45.6569C81.4899 47.1571 79.4551 48 77.3333 48ZM61.3333 26.6667C59.2116 26.6667 57.1768 25.8238 55.6765 24.3235C54.1762 22.8232 53.3333 20.7884 53.3333 18.6667C53.3333 16.5449 54.1762 14.5101 55.6765 13.0098C57.1768 11.5095 59.2116 10.6667 61.3333 10.6667C63.4551 10.6667 65.4899 11.5095 66.9902 13.0098C68.4905 14.5101 69.3333 16.5449 69.3333 18.6667C69.3333 20.7884 68.4905 22.8232 66.9902 24.3235C65.4899 25.8238 63.4551 26.6667 61.3333 26.6667ZM34.6667 26.6667C32.5449 26.6667 30.5101 25.8238 29.0098 24.3235C27.5095 22.8232 26.6667 20.7884 26.6667 18.6667C26.6667 16.5449 27.5095 14.5101 29.0098 13.0098C30.5101 11.5095 32.5449 10.6667 34.6667 10.6667C36.7884 10.6667 38.8232 11.5095 40.3235 13.0098C41.8238 14.5101 42.6667 16.5449 42.6667 18.6667C42.6667 20.7884 41.8238 22.8232 40.3235 24.3235C38.8232 25.8238 36.7884 26.6667 34.6667 26.6667ZM18.6667 48C16.5449 48 14.5101 47.1571 13.0098 45.6569C11.5095 44.1566 10.6667 42.1217 10.6667 40C10.6667 37.8783 11.5095 35.8434 13.0098 34.3431C14.5101 32.8429 16.5449 32 18.6667 32C20.7884 32 22.8232 32.8429 24.3235 34.3431C25.8238 35.8434 26.6667 37.8783 26.6667 40C26.6667 42.1217 25.8238 44.1566 24.3235 45.6569C22.8232 47.1571 20.7884 48 18.6667 48ZM48 0C35.2696 0 23.0606 5.05713 14.0589 14.0589C5.05713 23.0606 0 35.2696 0 48C0 60.7304 5.05713 72.9394 14.0589 81.9411C23.0606 90.9429 35.2696 96 48 96C50.1217 96 52.1566 95.1571 53.6569 93.6569C55.1571 92.1566 56 90.1217 56 88C56 85.92 55.2 84.0533 53.92 82.6667C52.6933 81.2267 51.8933 79.36 51.8933 77.3333C51.8933 75.2116 52.7362 73.1768 54.2365 71.6765C55.7368 70.1762 57.7716 69.3333 59.8933 69.3333H69.3333C76.4058 69.3333 83.1885 66.5238 88.1895 61.5229C93.1905 56.5219 96 49.7391 96 42.6667C96 19.0933 74.5067 0 48 0Z" fill="#00CB3B"/>
</svg>
