<svg width="124" height="102" viewBox="0 0 124 102" fill="none" xmlns="http://www.w3.org/2000/svg">
<path d="M106.667 28.6667V17.5C106.667 8.2875 99.1292 0.75 89.9167 0.75H34.0834C24.8709 0.75 17.3334 8.2875 17.3334 17.5V28.6667C8.12087 28.6667 0.583374 36.2042 0.583374 45.4167V73.3333C0.583374 82.5458 8.12087 90.0833 17.3334 90.0833V95.6667C17.3334 98.7375 19.8459 101.25 22.9167 101.25C25.9875 101.25 28.5 98.7375 28.5 95.6667V90.0833H95.5V95.6667C95.5 98.7375 98.0125 101.25 101.083 101.25C104.154 101.25 106.667 98.7375 106.667 95.6667V90.0833C115.879 90.0833 123.417 82.5458 123.417 73.3333V45.4167C123.417 36.2042 115.879 28.6667 106.667 28.6667ZM28.5 17.5C28.5 14.4292 31.0125 11.9167 34.0834 11.9167H89.9167C92.9875 11.9167 95.5 14.4292 95.5 17.5V33.0217C92.0942 36.0925 89.9167 40.5033 89.9167 45.4167V56.5833H34.0834V45.4167C34.0834 40.5033 31.9059 36.0925 28.5 33.0217V17.5ZM112.25 73.3333C112.25 76.4042 109.738 78.9167 106.667 78.9167H17.3334C14.2625 78.9167 11.75 76.4042 11.75 73.3333V45.4167C11.75 42.3458 14.2625 39.8333 17.3334 39.8333C20.4042 39.8333 22.9167 42.3458 22.9167 45.4167V67.75H101.083V45.4167C101.083 42.3458 103.596 39.8333 106.667 39.8333C109.738 39.8333 112.25 42.3458 112.25 45.4167V73.3333Z" fill="#00CB3B"/>
</svg>
