<svg width="44" height="42" viewBox="0 0 44 42" fill="none" xmlns="http://www.w3.org/2000/svg">
<path d="M21.7652 0.166504C9.91521 0.166504 0.297821 9.49984 0.297821 20.9998C0.297821 32.4998 9.91521 41.8332 21.7652 41.8332C33.6152 41.8332 43.2326 32.4998 43.2326 20.9998C43.2326 9.49984 33.6152 0.166504 21.7652 0.166504ZM31.7261 14.3332C31.4041 17.6248 30.0087 25.6248 29.3003 29.3123C28.9997 30.8748 28.3986 31.3957 27.8405 31.4582C26.5954 31.5623 25.6508 30.6665 24.4486 29.8957C22.5595 28.6873 21.4861 27.9373 19.6614 26.7707C17.5361 25.4165 18.91 24.6665 20.1337 23.4582C20.4557 23.1457 25.9514 18.2915 26.0587 17.854C26.0736 17.7877 26.0716 17.7189 26.0529 17.6536C26.0342 17.5882 25.9993 17.5283 25.9514 17.479C25.8225 17.3748 25.6508 17.4165 25.5005 17.4373C25.3073 17.479 22.3019 19.4165 16.4413 23.2498C15.5826 23.8123 14.8098 24.104 14.1228 24.0832C13.35 24.0623 11.8902 23.6665 10.7954 23.3123C9.44293 22.8957 8.39103 22.6665 8.4769 21.9373C8.51983 21.5623 9.05652 21.1873 10.0655 20.7915C16.334 18.1457 20.4986 16.3957 22.581 15.5623C28.5489 13.1457 29.7726 12.729 30.5883 12.729C30.7601 12.729 31.1679 12.7707 31.4255 12.979C31.6402 13.1457 31.7046 13.3748 31.7261 13.5415C31.7046 13.6665 31.7475 14.0415 31.7261 14.3332Z" fill="#00A4E4"/>
</svg>
