<svg width="52" height="50" viewBox="0 0 52 50" fill="none" xmlns="http://www.w3.org/2000/svg">
<path d="M17.1031 12.9207C16.7041 12.8643 16.2973 12.9422 15.9503 13.1415H15.9203C15.1152 13.5998 14.3896 14.1769 13.7714 14.8561C13.2562 15.4332 12.9771 16.0165 12.9041 16.579C12.8612 16.9123 12.8912 17.2498 12.9921 17.5686L13.0308 17.5894C13.6104 19.2415 14.366 20.8311 15.2891 22.3269C16.4794 24.4279 17.9441 26.3711 19.647 28.1082L19.6985 28.179L19.7801 28.2373L19.8295 28.2936L19.8896 28.3436C21.6858 30.0012 23.6928 31.4294 25.8618 32.5936C28.3413 33.904 29.8462 34.5228 30.7499 34.7811V34.7936C31.014 34.8728 31.2544 34.9082 31.497 34.9082C32.2667 34.853 32.9952 34.5493 33.5665 34.0457C34.2642 33.4457 34.8545 32.7394 35.3139 31.954V31.9394C35.7454 31.1478 35.5994 30.4019 34.9769 29.8957C33.7264 28.8353 32.3742 27.8935 30.9389 27.0832C29.9771 26.5769 29.0003 26.8832 28.6053 27.3957L27.7617 28.429C27.328 28.9415 26.5423 28.8707 26.5423 28.8707L26.5209 28.8832C20.6581 27.4311 19.0931 21.6707 19.0931 21.6707C19.0931 21.6707 19.0202 20.8873 19.5633 20.4873L20.6195 19.6623C21.1261 19.2623 21.4782 18.3165 20.9351 17.3832C20.1056 15.9889 19.137 14.6771 18.0434 13.4665C17.8049 13.1816 17.4704 12.9876 17.0988 12.9186L17.1031 12.9207ZM27.0103 10.4165C26.7256 10.4165 26.4526 10.5263 26.2513 10.7216C26.05 10.917 25.937 11.1819 25.937 11.4582C25.937 11.7344 26.05 11.9994 26.2513 12.1947C26.4526 12.3901 26.7256 12.4998 27.0103 12.4998C29.7238 12.4998 31.9779 13.3603 33.7618 15.0103C34.6785 15.9123 35.3933 16.9811 35.8613 18.1519C36.3315 19.3248 36.5461 20.5769 36.4903 21.8311C36.4784 22.1074 36.58 22.3769 36.7728 22.5805C36.9657 22.784 37.2339 22.9049 37.5186 22.9165C37.8033 22.9281 38.081 22.8295 38.2908 22.6423C38.5006 22.4552 38.6251 22.1949 38.6371 21.9186C38.7037 20.3758 38.4398 18.8365 37.8621 17.3978C37.2819 15.9522 36.4022 14.6376 35.2774 13.5353L35.2559 13.5144C33.0427 11.4623 30.2433 10.4165 27.0103 10.4165Z" fill="#7D00A9"/>
<path d="M26.9352 13.8414C26.6505 13.8414 26.3775 13.9512 26.1762 14.1465C25.9749 14.3419 25.8618 14.6068 25.8618 14.8831C25.8618 15.1594 25.9749 15.4243 26.1762 15.6197C26.3775 15.815 26.6505 15.9248 26.9352 15.9248H26.9717C28.9295 16.0602 30.3549 16.6935 31.3532 17.7331C32.3772 18.8039 32.9074 20.1352 32.8666 21.781C32.8601 22.0573 32.9669 22.3248 33.1636 22.5246C33.3602 22.7245 33.6306 22.8403 33.9153 22.8466C34.2 22.853 34.4756 22.7493 34.6815 22.5585C34.8875 22.3676 35.0068 22.1052 35.0134 21.8289C35.0649 19.6685 34.3479 17.8039 32.9267 16.3164V16.3123C31.4734 14.7998 29.4791 13.9998 27.079 13.8435L27.0425 13.8394L26.9352 13.8414Z" fill="#7D00A9"/>
<path d="M26.8944 17.3312C26.7508 17.3189 26.606 17.3348 26.4689 17.378C26.3317 17.4212 26.2049 17.4907 26.096 17.5825C25.9872 17.6743 25.8985 17.7864 25.8353 17.9122C25.7721 18.038 25.7356 18.1749 25.7281 18.3146C25.7206 18.4544 25.7422 18.5942 25.7916 18.7256C25.841 18.8571 25.9172 18.9776 26.0156 19.0799C26.1141 19.1821 26.2327 19.2641 26.3645 19.3209C26.4963 19.3777 26.6386 19.4081 26.7828 19.4103C27.6801 19.4562 28.2533 19.7187 28.6139 20.0708C28.9767 20.4249 29.2472 20.9937 29.2966 21.8833C29.2993 22.0231 29.3309 22.1609 29.3897 22.2886C29.4484 22.4162 29.533 22.5311 29.6385 22.6264C29.7439 22.7216 29.8681 22.7953 30.0035 22.843C30.1389 22.8907 30.2828 22.9115 30.4267 22.9041C30.5706 22.8967 30.7114 22.8612 30.8409 22.7999C30.9703 22.7385 31.0857 22.6525 31.1802 22.5469C31.2747 22.4414 31.3463 22.3184 31.3907 22.1854C31.4352 22.0524 31.4516 21.9121 31.439 21.7728C31.3703 20.5228 30.9668 19.4187 30.1403 18.6062C29.3095 17.7937 28.1781 17.3978 26.8944 17.3312Z" fill="#7D00A9"/>
<path fill-rule="evenodd" clip-rule="evenodd" d="M15.1753 4.96687C22.0064 3.485 29.0904 3.485 35.9214 4.96687L36.6492 5.12312C38.6461 5.55635 40.4801 6.51838 41.9475 7.90233C43.4148 9.28628 44.4581 11.0379 44.9614 12.9627C46.6953 19.5937 46.6953 26.54 44.9614 33.171C44.4581 35.0958 43.4148 36.8475 41.9475 38.2314C40.4801 39.6154 38.6461 40.5774 36.6492 41.0106L35.9193 41.1669C31.6409 42.0954 27.2507 42.4452 22.8736 42.2065L17.1783 47.1523C16.9635 47.3389 16.7012 47.4661 16.4185 47.5206C16.1358 47.5752 15.8433 47.5552 15.5713 47.4626C15.2994 47.37 15.058 47.2083 14.8724 46.9943C14.6868 46.7803 14.5639 46.5219 14.5163 46.246L13.5739 40.7835C11.7667 40.2378 10.134 39.2515 8.83167 37.9187C7.52937 36.5859 6.60105 34.9513 6.13543 33.171C4.40141 26.54 4.40141 19.5937 6.13543 12.9627C6.63867 11.0379 7.68194 9.28628 9.14931 7.90233C10.6167 6.51838 12.4507 5.55635 14.4476 5.12312L15.1753 4.96687ZM35.2195 8.01479C28.8507 6.63313 22.2461 6.63313 15.8773 8.01479L15.1474 8.17312C13.7321 8.48074 12.4324 9.16303 11.3925 10.1442C10.3527 11.1254 9.61339 12.3671 9.25679 13.7315C7.65471 19.858 7.65471 26.2758 9.25679 32.4023C9.61356 33.7669 10.3532 35.0088 11.3934 35.99C12.4337 36.9712 13.7339 37.6533 15.1496 37.9606L15.3428 38.0023C15.6553 38.0701 15.9399 38.2269 16.1602 38.4525C16.3805 38.6782 16.5264 38.9624 16.5793 39.269L17.2105 42.9315L21.2292 39.4419C21.3896 39.3021 21.5774 39.195 21.7813 39.1271C21.9853 39.0591 22.2012 39.0315 22.4163 39.046C26.7078 39.3415 31.0207 39.0292 35.2195 38.119L35.9472 37.9606C37.3629 37.6533 38.6631 36.9712 39.7034 35.99C40.7436 35.0088 41.4832 33.7669 41.84 32.4023C43.4415 26.2773 43.4415 19.8585 41.84 13.7315C41.4832 12.3669 40.7436 11.125 39.7034 10.1438C38.6631 9.16253 37.3629 8.48039 35.9472 8.17312L35.2195 8.01479Z" fill="#7D00A9"/>
</svg>
