<svg width="44" height="42" viewBox="0 0 44 42" fill="none" xmlns="http://www.w3.org/2000/svg">
<path d="M37.007 6.22913C35.0306 4.29981 32.6764 2.7701 30.0818 1.72923C27.4872 0.688366 24.7042 0.15717 21.8949 0.166628C10.1243 0.166628 0.530954 9.43746 0.530954 20.8125C0.530954 24.4583 1.52262 28 3.37661 31.125L0.35849 41.8333L11.6764 38.9583C14.8023 40.6041 18.3163 41.4791 21.8949 41.4791C33.6656 41.4791 43.2589 32.2083 43.2589 20.8333C43.2589 15.3125 41.0384 10.125 37.007 6.22913ZM21.8949 37.9791C18.7043 37.9791 15.5784 37.1458 12.8406 35.5833L12.1938 35.2083L5.46773 36.9166L7.25704 30.5833L6.82588 29.9375C5.05327 27.202 4.11204 24.04 4.10958 20.8125C4.10958 11.3541 12.086 3.64579 21.8733 3.64579C26.6161 3.64579 31.0786 5.43746 34.4201 8.68746C36.0746 10.2791 37.3858 12.1722 38.2777 14.2571C39.1695 16.342 39.6243 18.5773 39.6156 20.8333C39.6587 30.2916 31.6822 37.9791 21.8949 37.9791ZM31.6391 25.1458C31.1002 24.8958 28.4701 23.6458 27.9958 23.4583C27.5 23.2916 27.1551 23.2083 26.7886 23.7083C26.4221 24.2291 25.4089 25.3958 25.107 25.7291C24.8052 26.0833 24.4819 26.125 23.9429 25.8541C23.404 25.6041 21.6793 25.0416 19.6529 23.2916C18.0576 21.9166 17.0012 20.2291 16.6779 19.7083C16.3761 19.1875 16.6348 18.9166 16.915 18.6458C17.1521 18.4166 17.454 18.0416 17.7127 17.75C17.9714 17.4583 18.0791 17.2291 18.2516 16.8958C18.4241 16.5416 18.3378 16.25 18.2085 16C18.0791 15.75 17.0012 13.2083 16.5701 12.1666C16.1389 11.1666 15.6862 11.2916 15.3628 11.2708H14.3281C13.9616 11.2708 13.4011 11.3958 12.9052 11.9166C12.431 12.4375 11.0512 13.6875 11.0512 16.2291C11.0512 18.7708 12.9699 21.2291 13.2286 21.5625C13.4873 21.9166 17.0012 27.125 22.3476 29.3541C23.6195 29.8958 24.6112 30.2083 25.3873 30.4375C26.6592 30.8333 27.8233 30.7708 28.7503 30.6458C29.7851 30.5 31.9194 29.3958 32.3505 28.1875C32.8032 26.9791 32.8032 25.9583 32.6523 25.7291C32.5014 25.5 32.1781 25.3958 31.6391 25.1458Z" fill="#00CB3B"/>
</svg>
