<svg width="134" height="57" viewBox="0 0 134 57" fill="none" xmlns="http://www.w3.org/2000/svg">
<path d="M2.1 51V45.78L18.78 29.94C20.18 28.62 21.22 27.46 21.9 26.46C22.58 25.46 23.02 24.54 23.22 23.7C23.46 22.82 23.58 22 23.58 21.24C23.58 19.32 22.92 17.84 21.6 16.8C20.28 15.72 18.34 15.18 15.78 15.18C13.74 15.18 11.88 15.54 10.2 16.26C8.56 16.98 7.14 18.08 5.94 19.56L0.48 15.36C2.12 13.16 4.32 11.46 7.08 10.26C9.88 9.02 13 8.4 16.44 8.4C19.48 8.4 22.12 8.9 24.36 9.9C26.64 10.86 28.38 12.24 29.58 14.04C30.82 15.84 31.44 17.98 31.44 20.46C31.44 21.82 31.26 23.18 30.9 24.54C30.54 25.86 29.86 27.26 28.86 28.74C27.86 30.22 26.4 31.88 24.48 33.72L10.14 47.34L8.52 44.4H33.06V51H2.1ZM36.083 41.46V36.06L56.783 9H65.123L44.723 36.06L40.823 34.86H74.123V41.46H36.083ZM59.123 51V41.46L59.363 34.86V26.4H66.683V51H59.123ZM74.4891 57L94.2891 0.479996H101.009L81.2091 57H74.4891ZM108.742 51L126.082 12.12L128.122 15.6H104.302L108.022 11.82V22.74H100.762V9H133.402V14.22L117.082 51H108.742Z" fill="url(#paint0_linear_56_49)"/>
<defs>
<linearGradient id="paint0_linear_56_49" x1="68" y1="-19" x2="68" y2="77" gradientUnits="userSpaceOnUse">
<stop stop-color="#00A4E4"/>
<stop offset="1" stop-color="#38E2F8"/>
</linearGradient>
</defs>
</svg>
