<svg width="57" height="57" viewBox="0 0 57 57" fill="none" xmlns="http://www.w3.org/2000/svg">
<path d="M12.5625 24.9584C9.13891 24.9584 6.21703 23.7483 3.7969 21.3282C1.37676 18.9081 0.166687 15.9862 0.166687 12.5626C0.166687 9.13897 1.37676 6.2171 3.7969 3.79696C6.21703 1.37682 9.13891 0.166748 12.5625 0.166748C15.9861 0.166748 18.908 1.37682 21.3281 3.79696C23.7483 6.2171 24.9584 9.13897 24.9584 12.5626C24.9584 15.9862 23.7483 18.9081 21.3281 21.3282C18.908 23.7483 15.9861 24.9584 12.5625 24.9584ZM12.5625 17.8751C14.0382 17.8751 15.2931 17.358 16.3273 16.3238C17.3615 15.2897 17.8774 14.0359 17.875 12.5626C17.875 11.0869 17.3579 9.83196 16.3238 8.79779C15.2896 7.76362 14.0359 7.24772 12.5625 7.25008C11.0868 7.25008 9.83189 7.76717 8.79773 8.80133C7.76356 9.8355 7.24766 11.0892 7.25002 12.5626C7.25002 14.0383 7.7671 15.2932 8.80127 16.3274C9.83544 17.3615 11.0892 17.8774 12.5625 17.8751ZM44.4375 56.8334C41.0139 56.8334 38.092 55.6233 35.6719 53.2032C33.2518 50.7831 32.0417 47.8612 32.0417 44.4376C32.0417 41.014 33.2518 38.0921 35.6719 35.672C38.092 33.2518 41.0139 32.0417 44.4375 32.0417C47.8611 32.0417 50.783 33.2518 53.2031 35.672C55.6233 38.0921 56.8334 41.014 56.8334 44.4376C56.8334 47.8612 55.6233 50.7831 53.2031 53.2032C50.783 55.6233 47.8611 56.8334 44.4375 56.8334ZM44.4375 49.7501C45.9132 49.7501 47.1681 49.233 48.2023 48.1988C49.2365 47.1647 49.7524 45.9109 49.75 44.4376C49.75 42.9619 49.2329 41.707 48.1988 40.6728C47.1646 39.6386 45.9109 39.1227 44.4375 39.1251C42.9618 39.1251 41.7069 39.6422 40.6727 40.6763C39.6386 41.7105 39.1227 42.9642 39.125 44.4376C39.125 45.9133 39.6421 47.1682 40.6763 48.2024C41.7104 49.2365 42.9642 49.7524 44.4375 49.7501ZM2.64585 54.3542C1.99655 53.7049 1.6719 52.8786 1.6719 51.8751C1.6719 50.8716 1.99655 50.0452 2.64585 49.3959L49.3959 2.64591C50.0452 1.99661 50.8716 1.67196 51.875 1.67196C52.8785 1.67196 53.7049 1.99661 54.3542 2.64591C55.0035 3.29522 55.3281 4.12161 55.3281 5.12508C55.3281 6.12855 55.0035 6.95494 54.3542 7.60425L7.60419 54.3542C6.95488 55.0036 6.12849 55.3282 5.12502 55.3282C4.12155 55.3282 3.29516 55.0036 2.64585 54.3542Z" fill="url(#paint0_linear_56_75)"/>
<defs>
<linearGradient id="paint0_linear_56_75" x1="28.5" y1="0.166748" x2="28.5" y2="56.8334" gradientUnits="userSpaceOnUse">
<stop stop-color="#00A4E4"/>
<stop offset="1" stop-color="#38E2F8"/>
</linearGradient>
</defs>
</svg>
