<svg width="52" height="58" viewBox="0 0 52 58" fill="none" xmlns="http://www.w3.org/2000/svg">
<path d="M24.011 1.21918C25.1291 0.800849 26.3507 0.746312 27.5017 1.06335L27.989 1.21918L47.8223 8.65669C48.828 9.03377 49.7057 9.68888 50.3533 10.5457C51.0009 11.4025 51.3917 12.4257 51.4802 13.496L51.5 13.9635V29.1587C51.4999 33.7499 50.2602 38.2559 47.9119 42.2011C45.5635 46.1462 42.1936 49.3842 38.1578 51.5732L37.4042 51.967L27.9012 56.7185C27.3779 56.9798 26.8064 57.1302 26.2223 57.1604C25.6383 57.1907 25.0543 57.1 24.5068 56.8942L24.0988 56.7185L14.5958 51.967C10.4892 49.9137 7.0132 46.7896 4.53468 42.9248C2.05616 39.0599 0.667112 34.5975 0.514167 30.0087L0.5 29.1587V13.9635C0.500016 12.8901 0.804942 11.8387 1.37928 10.9318C1.95362 10.0249 2.77374 9.29976 3.74417 8.84085L4.17767 8.65669L24.011 1.21918ZM26 6.52602L6.16667 13.9635V29.1587C6.16674 32.7145 7.12278 36.205 8.93471 39.2646C10.7466 42.3241 13.3478 44.8403 16.4658 46.5497L17.1317 46.8982L26 51.3324L34.8683 46.8982C38.0494 45.308 40.7444 42.8916 42.671 39.9023C44.5976 36.9129 45.6849 33.4606 45.8192 29.9067L45.8333 29.1587V13.9635L26 6.52602ZM35.7268 19.4489C36.2367 18.9407 36.9209 18.6457 37.6404 18.6237C38.3599 18.6017 39.0609 18.8545 39.6008 19.3306C40.1407 19.8067 40.4792 20.4704 40.5475 21.187C40.6157 21.9036 40.4087 22.6194 39.9683 23.1889L39.7332 23.4552L24.9035 38.2877C24.3633 38.8278 23.6436 39.1507 22.881 39.1951C22.1184 39.2395 21.366 39.0023 20.7668 38.5285L20.4948 38.2877L13.6835 31.4764C13.1699 30.9676 12.8702 30.2819 12.8457 29.5595C12.8212 28.837 13.0738 28.1325 13.5517 27.5902C14.0295 27.0479 14.6967 26.7087 15.4164 26.6421C16.1362 26.5755 16.8542 26.7866 17.4235 27.232L17.6898 27.4672L22.6992 32.4765L35.7268 19.4489Z" fill="url(#paint0_linear_56_82)"/>
<defs>
<linearGradient id="paint0_linear_56_82" x1="26" y1="0.859863" x2="26" y2="57.1661" gradientUnits="userSpaceOnUse">
<stop stop-color="#00A4E4"/>
<stop offset="1" stop-color="#38E2F8"/>
</linearGradient>
</defs>
</svg>
