<svg width="38" height="57" viewBox="0 0 38 57" fill="none" xmlns="http://www.w3.org/2000/svg">
<path d="M24.3334 29.6666V24.3333L19 26.9999L13.6667 24.3333V29.6666L8.33337 32.3333L13.6667 34.9999V40.3333L19 37.6666L24.3334 40.3333V34.9999L29.6667 32.3333M24.3334 0.333252H5.66671C4.25222 0.333252 2.89566 0.895155 1.89547 1.89535C0.895277 2.89554 0.333374 4.2521 0.333374 5.66659V42.9999C0.333374 44.4144 0.895277 45.771 1.89547 46.7712C2.89566 47.7714 4.25222 48.3333 5.66671 48.3333H8.33337V42.9999H5.66671V5.66659H21.6667V16.3333H32.3334V42.9999H29.6667V48.3333H32.3334C33.7479 48.3333 35.1044 47.7714 36.1046 46.7712C37.1048 45.771 37.6667 44.4144 37.6667 42.9999V13.6666M24.3334 29.6666V24.3333L19 26.9999L13.6667 24.3333V29.6666L8.33337 32.3333L13.6667 34.9999V40.3333L19 37.6666L24.3334 40.3333V34.9999L29.6667 32.3333M13.6667 56.3333L19 53.6666L24.3334 56.3333V42.9999H13.6667M24.3334 29.6666V24.3333L19 26.9999L13.6667 24.3333V29.6666L8.33337 32.3333L13.6667 34.9999V40.3333L19 37.6666L24.3334 40.3333V34.9999L29.6667 32.3333L24.3334 29.6666Z" fill="url(#paint0_linear_56_88)"/>
<defs>
<linearGradient id="paint0_linear_56_88" x1="19" y1="0.333252" x2="19" y2="56.3333" gradientUnits="userSpaceOnUse">
<stop stop-color="#00A4E4"/>
<stop offset="1" stop-color="#38E2F8"/>
</linearGradient>
</defs>
</svg>
