<svg width="47" height="58" viewBox="0 0 47 58" fill="none" xmlns="http://www.w3.org/2000/svg">
<path d="M23.5 29.5C25.0812 29.5 26.4354 28.9365 27.5624 27.8095C28.6894 26.6825 29.2519 25.3293 29.25 23.75C29.25 22.1687 28.6865 20.8146 27.5595 19.6876C26.4325 18.5606 25.0793 17.9981 23.5 18C21.9188 18 20.5646 18.5635 19.4376 19.6905C18.3106 20.8175 17.7481 22.1707 17.75 23.75C17.75 25.3312 18.3135 26.6854 19.4405 27.8124C20.5675 28.9394 21.9207 29.5019 23.5 29.5ZM23.5 50.6313C29.3458 45.2646 33.6823 40.3886 36.5094 36.0033C39.3365 31.6179 40.75 27.7252 40.75 24.325C40.75 19.1021 39.0844 14.826 35.7532 11.4967C32.4221 8.1675 28.3377 6.50192 23.5 6.5C18.6604 6.5 14.575 8.16558 11.2439 11.4967C7.91271 14.8279 6.24808 19.104 6.25 24.325C6.25 27.7271 7.66354 31.6208 10.4906 36.0061C13.3177 40.3915 17.6542 45.2665 23.5 50.6313ZM23.5 57.1719C23.1167 57.1719 22.7333 57.1 22.35 56.9563C21.9667 56.8125 21.6313 56.6208 21.3438 56.3813C14.3479 50.2 9.125 44.4615 5.675 39.1657C2.225 33.87 0.5 28.9231 0.5 24.325C0.5 17.1375 2.81246 11.4115 7.43738 7.14687C12.0623 2.88229 17.4165 0.75 23.5 0.75C29.5854 0.75 34.9406 2.88229 39.5655 7.14687C44.1904 11.4115 46.5019 17.1375 46.5 24.325C46.5 28.925 44.775 33.8729 41.325 39.1686C37.875 44.4644 32.6521 50.2019 25.6562 56.3813C25.3687 56.6208 25.0333 56.8125 24.65 56.9563C24.2667 57.1 23.8833 57.1719 23.5 57.1719Z" fill="#00A4E4"/>
</svg>
