<svg width="59" height="59" viewBox="0 0 59 59" fill="none" xmlns="http://www.w3.org/2000/svg">
<path d="M55.0156 58.25C47.5406 58.25 40.5084 56.8365 33.9189 54.0094C27.3294 51.1823 21.5794 47.3125 16.6689 42.4001C11.7584 37.4896 7.87713 31.7396 5.02513 25.1501C2.17313 18.5606 0.74809 11.5063 0.750007 3.98725C0.70209 3.12475 0.98959 2.36958 1.61251 1.72175C2.23542 1.07392 3.00209 0.750958 3.91251 0.752875H15.125C15.9875 0.752875 16.7302 1.07679 17.3531 1.72462C17.976 2.37246 18.2875 3.15062 18.2875 4.05912C18.2875 6.16746 18.4313 8.156 18.7188 10.0247C19.0063 11.8935 19.4615 13.6664 20.0844 15.3435C20.324 15.8706 20.3719 16.4101 20.2281 16.9621C20.0844 17.5141 19.7969 18.0287 19.3656 18.506L12.1781 25.6935C14.2385 29.9102 17.1615 33.9112 20.9469 37.6966C24.7323 41.482 28.8052 44.5008 33.1656 46.7529L40.3531 39.5654C40.7844 39.1341 41.2875 38.8466 41.8625 38.7029C42.4375 38.5591 43.0125 38.607 43.5875 38.8466C45.3604 39.4216 47.1937 39.8653 49.0874 40.1778C50.981 40.4902 52.9332 40.6454 54.9438 40.6435C55.8542 40.6435 56.6333 40.9789 57.2811 41.6497C57.929 42.3206 58.2519 43.1352 58.25 44.0935V55.0875C58.25 55.95 57.9385 56.6927 57.3156 57.3156C56.6927 57.9385 55.926 58.25 55.0156 58.25ZM52.5 29.5C52.5 23.0792 50.2719 17.6406 45.8156 13.1844C41.3594 8.72813 35.9208 6.5 29.5 6.5V0.75C33.4771 0.75 37.2146 1.50517 40.7125 3.0155C44.2104 4.52583 47.2531 6.57379 49.8406 9.15937C52.4281 11.7469 54.477 14.7896 55.9874 18.2875C57.4977 21.7854 58.2519 25.5229 58.25 29.5H52.5ZM41 29.5C41 26.3375 39.874 23.6302 37.6219 21.3781C35.3698 19.126 32.6625 18 29.5 18V12.25C34.2917 12.25 38.3646 13.9271 41.7188 17.2812C45.0729 20.6354 46.75 24.7083 46.75 29.5H41Z" fill="#00A4E4"/>
</svg>
