<svg width="59" height="59" viewBox="0 0 59 59" fill="none" xmlns="http://www.w3.org/2000/svg">
<path d="M29.5 52.5C42.15 52.5 52.5 42.15 52.5 29.5C52.5 16.85 42.15 6.5 29.5 6.5C16.85 6.5 6.5 16.85 6.5 29.5C6.5 42.15 16.85 52.5 29.5 52.5ZM29.5 0.75C45.3125 0.75 58.25 13.6875 58.25 29.5C58.25 45.3125 45.3125 58.25 29.5 58.25C13.6875 58.25 0.75 45.3125 0.75 29.5C0.75 13.6875 13.6875 0.75 29.5 0.75ZM30.9375 31.8L17.1375 39.85L15.125 35.825L26.625 29.2125V15.125H30.9375V31.8Z" fill="#00A4E4"/>
</svg>
