<svg width="72" height="73" viewBox="0 0 72 73" fill="none" xmlns="http://www.w3.org/2000/svg">
<path d="M67.2917 50.3542C62.3438 50.3542 57.5938 49.5625 53.1604 48.0979C52.4644 47.8762 51.7214 47.8475 51.0103 48.0148C50.2993 48.1821 49.647 48.5392 49.1229 49.0479L40.4146 57.7563C29.1776 52.0413 20.0441 42.9078 14.3292 31.6708L23.0375 22.9229C23.5618 22.4255 23.9333 21.7889 24.1086 21.0878C24.2839 20.3867 24.2556 19.6502 24.0271 18.9646C22.5255 14.4048 21.7638 9.63399 21.7708 4.83333C21.7708 2.65625 19.9896 0.875 17.8125 0.875H3.95833C1.78125 0.875 0 2.65625 0 4.83333C0 42.0021 30.1229 72.125 67.2917 72.125C69.4688 72.125 71.25 70.3438 71.25 68.1667V54.3125C71.25 52.1354 69.4688 50.3542 67.2917 50.3542ZM63.3333 36.5H71.25C71.25 27.0517 67.4967 17.9903 60.8157 11.3093C54.1347 4.62834 45.0733 0.875 35.625 0.875V8.79167C50.9437 8.79167 63.3333 21.1812 63.3333 36.5ZM47.5 36.5H55.4167C55.4167 25.575 46.55 16.7083 35.625 16.7083V24.625C42.1958 24.625 47.5 29.9292 47.5 36.5Z" fill="#28C700"/>
</svg>
