<svg width="159" height="146" viewBox="0 0 159 146" fill="none" xmlns="http://www.w3.org/2000/svg">
<g clip-path="url(#clip0_28_199)">
<path d="M159 144.039C158.328 145.465 157.221 145.992 155.632 145.979C147.752 145.93 139.905 145.979 132.037 145.954C129.486 145.954 128.619 145.067 128.607 142.489C128.607 140.893 128.607 139.292 128.607 137.443H120.216C116.483 137.443 116.006 137.029 115.708 133.298C112.025 132.767 108.723 133.522 105.754 135.939C100.777 140.022 95.1568 143.044 88.8608 144.421C84.835 145.339 80.7251 145.839 76.5965 145.913C55.9003 146.062 35.2041 145.988 14.5037 145.979C9.31516 145.979 5.42063 143.384 4.66578 138.787C3.98144 134.591 3.64134 126.764 5.91004 123.979C2.90308 122.519 0.576299 120.301 0.273529 116.931C-0.0618004 113.334 -0.0423456 109.713 0.3316 106.119C0.530682 104.254 1.87448 102.513 2.82012 100.469C0.451879 98.3628 -0.170248 95.2163 0.0246865 91.763C0.0889727 90.6266 0.0889727 89.4876 0.0246865 88.3512C-0.157805 84.9559 0.489207 81.8592 3.23488 79.4091C0.501649 76.9508 -0.145367 73.8664 0.0205349 70.4712C0.107633 68.7176 0.0205299 66.9557 0.0412676 65.1938C0.0951856 59.7341 4.09756 55.6797 9.58061 55.6589C18.2199 55.6175 26.8634 55.6589 35.5027 55.6589C40.5959 55.6589 42.8978 53.3623 42.9019 48.2963C42.9019 45.7634 42.9019 43.2262 42.9019 40.6933C42.9019 38.8692 43.7729 37.8453 45.237 37.8453C46.7011 37.8453 47.5347 38.8278 47.5347 40.6808C47.5347 43.475 47.5347 46.2677 47.5347 49.0591C47.5098 54.5106 44.4365 58.5277 39.1982 59.9911C38.9991 60.045 38.8125 60.1237 38.9618 60.0698V71.006C38.9618 75.0728 38.547 76.2336 35.8719 79.4506C38.7751 82.025 39.1484 85.4576 38.9701 89.0684C38.9244 89.9467 38.9244 90.8267 38.9701 91.705C39.1484 95.1334 38.6009 98.3089 35.7682 100.825C38.6507 103.367 39.136 106.629 38.9701 110.087C38.912 111.33 38.912 112.574 38.9701 113.818C39.1194 117.018 38.3479 119.87 35.9714 122.109C40.7245 128.054 38.8456 134.616 38.294 141.266C38.5022 141.314 38.7149 141.341 38.9286 141.344C52.0182 141.344 65.112 141.403 78.2016 141.303C86.8718 141.295 95.2811 138.337 102.046 132.916C105.837 129.932 109.889 128.199 114.746 128.522C115.066 128.518 115.386 128.498 115.704 128.46C115.729 127.913 115.774 127.366 115.774 126.822C115.774 123.506 115.774 120.189 115.774 116.873C115.774 115.128 116.604 114.124 118.001 114.083C119.399 114.042 120.407 115.119 120.415 116.885C120.44 121.541 120.415 126.196 120.415 130.848V132.672H128.449V69.0244H120.448V70.7489C120.448 81.9172 120.448 93.0882 120.448 104.262C120.479 104.829 120.444 105.398 120.345 105.958C120.03 107.23 119.179 107.898 117.856 107.761C116.612 107.628 115.928 106.865 115.828 105.613C115.791 105.149 115.828 104.681 115.828 104.216V73.2819C114.347 73.2073 113.02 73.1617 111.681 73.0622C108.76 72.864 105.972 71.7662 103.701 69.9198C99.5531 66.5785 94.9411 64.1491 89.9848 62.2007C82.4197 59.2241 77.4177 53.6566 74.8297 45.9831C70.3586 32.7171 65.9581 19.4512 61.5244 6.18525C61.3792 5.74996 61.2258 5.31466 60.9645 4.56016C59.4921 4.97472 57.9616 5.24834 56.6012 5.87018C50.9647 8.43631 47.9122 12.8887 47.5969 19.0656C47.431 22.2661 47.5679 25.4789 47.5513 28.6876C47.5513 30.4992 46.6679 31.5605 45.2328 31.5605C43.7978 31.5605 42.8812 30.4868 42.9061 28.6835C42.9641 24.6042 42.7485 20.4834 43.2296 16.4498C44.3079 7.46623 52.4827 0.281892 61.5119 0.00828186C63.8926 -0.0663391 64.4857 0.34408 65.2447 2.61587L79.1763 44.3373C81.4284 51.0822 85.8455 55.7833 92.5314 58.2499C97.391 60.0381 101.93 62.5985 105.974 65.8323C108.927 68.187 111.734 68.9 115.542 68.3984C115.604 68.3237 115.712 68.2533 115.72 68.1704C116.089 64.5222 116.396 64.2486 120.121 64.2486C125.189 64.2486 130.26 64.2486 135.334 64.2486C137.192 64.2486 138.204 65.0777 138.212 66.5246C138.221 67.9714 137.2 68.8502 135.375 68.8958C134.757 68.8958 134.131 68.8958 133.393 68.8958V141.166H154.255V68.9041C152.065 68.9041 149.913 68.9041 147.76 68.9041C147.15 68.9041 146.337 68.9788 145.972 68.6388C145.325 68.0336 144.624 67.1671 144.541 66.3504C144.519 66.0872 144.552 65.8222 144.638 65.5726C144.725 65.3231 144.864 65.0947 145.045 64.9025C145.227 64.7103 145.446 64.5586 145.691 64.4573C145.935 64.356 146.198 64.3075 146.462 64.315C149.875 64.2403 153.297 64.174 156.698 64.3771C157.498 64.4227 158.233 65.5379 159 66.1639V144.039ZM20.3227 60.2979C16.8595 60.2979 13.4005 60.2979 9.95389 60.2979C6.66075 60.2979 4.74043 62.2131 4.71969 65.4674C4.71969 67.5858 4.71969 69.7042 4.71969 71.8185C4.71969 75.135 6.59023 77.0378 9.86679 77.0461C16.3259 77.0461 22.7822 77.0461 29.2358 77.0461C32.3962 77.0461 34.2709 75.222 34.3248 72.0714C34.3746 69.3353 34.358 66.5992 34.3248 63.8631C34.2999 61.3426 33.234 60.2937 30.7165 60.2854C27.2408 60.2813 23.7818 60.2937 20.3227 60.2937V60.2979ZM19.4186 119.895C22.7366 119.895 26.0546 119.916 29.3436 119.895C32.3257 119.87 34.2211 118.063 34.2999 115.119C34.3663 112.748 34.3663 110.369 34.2999 107.993C34.2253 105.091 32.3008 103.172 29.3685 103.159C22.8043 103.121 16.2416 103.121 9.68015 103.159C6.68148 103.159 4.73629 105.153 4.70311 108.134C4.67822 110.352 4.70311 112.574 4.70311 114.796C4.70311 118.005 6.59439 119.887 9.80873 119.912C13.0231 119.937 16.2167 119.891 19.4186 119.891V119.895ZM19.4186 98.4789C22.7366 98.4789 26.0339 98.5079 29.3395 98.4789C32.3299 98.4457 34.2128 96.6382 34.2916 93.6949C34.358 91.3194 34.358 88.9398 34.2916 86.5686C34.217 83.6666 32.2967 81.7472 29.3519 81.7306C22.7905 81.6947 16.2277 81.6947 9.66356 81.7306C6.67319 81.7306 4.72799 83.7371 4.68651 86.7054C4.66163 88.9233 4.68651 91.1453 4.68651 93.3674C4.68651 96.5678 6.57779 98.454 9.80042 98.4831C13.0231 98.5121 16.225 98.4789 19.4269 98.4748L19.4186 98.4789ZM21.5711 141.324H29.3146H29.6257C32.334 141.191 34.188 139.421 34.2792 136.718C34.3622 134.231 34.358 131.743 34.2792 129.285C34.1962 126.532 32.3133 124.617 29.5427 124.58C24.2892 124.513 19.0232 124.513 13.7447 124.58C10.9161 124.617 9.04558 126.619 9.0041 129.438C8.97092 131.71 8.98337 133.998 9.0041 136.25C9.02899 139.4 10.8456 141.27 13.9811 141.32C16.5194 141.353 19.0494 141.32 21.5794 141.32L21.5711 141.324Z" fill="#00376C"/>
<path d="M92.1127 113.1C73.2994 111.363 59.0278 102.807 50.8073 85.3705C48.3188 80.0724 47.2404 74.3846 47.2197 68.5186C47.2197 66.765 48.0077 65.7784 49.4262 65.7286C50.8447 65.6789 51.8442 66.6945 51.8691 68.4813C52.1138 89.2093 67.8122 103.648 84.6015 107.375C87.4094 107.997 90.3251 108.134 93.1952 108.482C93.7593 108.553 94.3357 108.524 94.8957 108.619C95.4198 108.679 95.902 108.934 96.2463 109.334C96.5906 109.733 96.7718 110.248 96.7538 110.775C96.7869 111.989 96.1524 112.897 94.8957 113.076C93.9697 113.148 93.0398 113.157 92.1127 113.1Z" fill="#00376C"/>
<path d="M19.5556 8.03419C20.5179 8.86332 21.3266 9.37323 21.899 10.0863C22.4714 10.7993 22.7285 11.6243 23.1059 12.412C24.7673 15.8316 27.5476 18.5814 30.9863 20.2057C31.7853 20.5649 32.5648 20.9662 33.3213 21.4079C35.1379 22.5521 35.1379 24.8446 33.3587 26.0095C33.2719 26.066 33.1803 26.1146 33.0849 26.1546C27.7761 28.2938 24.147 32.0497 21.8866 37.3105C20.9451 39.5035 18.3031 39.4247 17.092 37.3478C16.6524 36.5891 16.2874 35.789 15.8975 35.0014C14.3003 31.6643 11.619 28.9667 8.29093 27.3486C7.46142 26.934 6.60703 26.5568 5.80241 26.1049C3.8033 24.9358 3.80329 22.5314 5.77337 21.3499C5.8157 21.3193 5.86004 21.2916 5.9061 21.267C11.2523 19.1693 14.8731 15.3761 17.1252 10.1277C17.4943 9.31933 18.5851 8.84673 19.5556 8.03419ZM19.5556 16.3669L11.9739 23.9036C13.1726 24.8902 14.703 25.9764 16.0095 27.2698C17.316 28.5632 18.3736 30.1054 19.3275 31.2703L26.8636 23.7212L19.5556 16.3669Z" fill="#00376C"/>
<path d="M99.3501 25.7193C99.8784 26.0124 100.382 26.3479 100.856 26.7226C101.169 27.0672 101.407 27.474 101.552 27.9165C102.283 29.7154 103.366 31.3504 104.737 32.7257C106.108 34.101 107.739 35.189 109.536 35.9258C110.781 36.4523 111.834 37.1695 111.826 38.7158C111.818 40.2621 110.723 40.9627 109.495 41.4851C107.698 42.2257 106.068 43.3185 104.7 44.6991C103.332 46.0797 102.255 47.72 101.532 49.5234C101.026 50.7298 100.287 51.6957 98.8234 51.704C97.3593 51.7123 96.6045 50.7547 96.0985 49.5441C95.3539 47.6931 94.2405 46.0127 92.8259 44.6051C91.4113 43.1976 89.7251 42.0923 87.8697 41.3566C86.7001 40.8674 85.796 40.1129 85.796 38.749C85.7669 37.298 86.7084 36.5269 87.932 36.0129C89.7837 35.2687 91.4658 34.1579 92.877 32.7473C94.2883 31.3367 95.3996 29.6555 96.1441 27.8046C96.6293 26.5982 97.3842 25.6654 99.3501 25.7193ZM94.3275 38.6744L98.8524 43.2055L103.241 38.6951L98.7944 34.2054L94.3275 38.6744Z" fill="#00376C"/>
<path d="M150.394 130.86C150.377 132.16 149.975 133.425 149.239 134.496C148.503 135.568 147.466 136.398 146.259 136.881C145.052 137.364 143.729 137.479 142.457 137.211C141.184 136.943 140.02 136.305 139.11 135.377C138.2 134.448 137.586 133.271 137.345 131.994C137.103 130.717 137.246 129.397 137.754 128.201C138.262 127.005 139.113 125.986 140.2 125.273C141.287 124.56 142.561 124.184 143.861 124.194C145.611 124.216 147.28 124.93 148.505 126.179C149.729 127.428 150.408 129.112 150.394 130.86ZM143.82 132.755C144.078 132.755 144.333 132.702 144.569 132.6C144.806 132.498 145.02 132.349 145.197 132.162C145.374 131.976 145.512 131.755 145.601 131.513C145.69 131.271 145.729 131.014 145.715 130.757C145.661 129.596 144.985 128.97 143.874 128.87C143.617 128.858 143.36 128.898 143.119 128.989C142.878 129.079 142.658 129.218 142.473 129.397C142.287 129.575 142.14 129.79 142.041 130.027C141.942 130.265 141.892 130.52 141.896 130.777C141.889 131.034 141.934 131.29 142.027 131.529C142.121 131.769 142.262 131.987 142.441 132.171C142.62 132.355 142.835 132.502 143.072 132.602C143.308 132.702 143.563 132.754 143.82 132.755Z" fill="#00376C"/>
</g>
<defs>
<clipPath id="clip0_28_199">
<rect width="159" height="146" fill="white"/>
</clipPath>
</defs>
</svg>
