<svg width="146" height="146" viewBox="0 0 146 146" fill="none" xmlns="http://www.w3.org/2000/svg">
<g clip-path="url(#clip0_28_210)">
<path d="M115.732 127.613C114.549 127.484 113.366 127.38 112.187 127.198C110.049 126.899 108.65 127.903 107.998 129.958C107.346 132.013 106.753 134.039 105.723 135.858C103.149 140.425 98.9939 142.048 93.9707 140.533C92.1076 139.908 90.3019 139.123 88.5739 138.187C86.2782 137.02 84.8003 137.44 83.2602 139.466C82.1079 141.052 80.7463 142.475 79.2126 143.696C75.0612 146.826 70.5445 146.727 66.5093 143.489C65.0866 142.288 63.789 140.948 62.6361 139.486C60.8053 137.265 59.3814 137.07 56.874 138.411C54.9438 139.491 52.8753 140.303 50.7258 140.823C46.5744 141.72 43.0457 140.296 40.7625 136.759C39.4423 134.72 38.6619 132.3 37.8357 129.979C37.076 127.841 35.76 127.11 33.4934 127.198C30.7908 127.301 27.9845 127.339 25.3733 126.741C21.2551 125.803 19.0466 122.743 18.5692 118.629C18.3942 116.519 18.429 114.396 18.6729 112.293C18.8764 109.919 18.0004 108.652 15.6715 108.042C13.9113 107.636 12.1995 107.043 10.5653 106.273C5.52967 103.724 3.66984 99.3402 5.34285 93.9472C5.98778 92.0952 6.78768 90.3009 7.73405 88.5833C8.84247 86.412 8.56432 84.9133 6.57165 83.4893C3.60341 81.3678 1.05031 78.8976 0.228339 75.1861C-0.772144 70.6525 1.58585 65.4422 6.15237 62.8474C8.69302 61.4068 8.72623 59.1608 7.60536 57.1141C6.54268 55.2264 5.71458 53.216 5.13943 51.1274C3.91477 46.4236 5.62929 42.4506 9.90521 40.1007C11.7424 39.1668 13.6835 38.4533 15.6881 37.9751C17.9631 37.3607 18.8971 36.0778 18.6646 33.6948C18.4352 31.7982 18.3797 29.8847 18.4986 27.978C18.9718 22.5809 22.3967 19.1517 27.7852 18.6701C29.6909 18.5261 31.6057 18.5567 33.5058 18.7614C35.9095 18.9815 37.1383 18.1885 37.8523 15.8553C38.3296 14.1126 38.9618 12.4162 39.7412 10.7861C42.34 5.78344 47.031 3.84049 52.4195 5.5385C54.0756 6.11316 55.6673 6.85894 57.1687 7.76377C59.1904 8.90961 60.8593 8.6273 62.3746 6.87947C63.757 5.2811 65.1352 3.6163 66.7875 2.33345C70.7313 -0.734592 75.0902 -0.767814 79.1046 2.23381C80.6791 3.47985 82.0758 4.93533 83.256 6.5598C84.7962 8.58164 86.2575 8.96774 88.5822 7.83019C90.6123 6.84211 92.6963 5.84158 94.8674 5.28111C99.1641 4.17262 102.842 5.61738 105.184 9.39535C106.342 11.4028 107.257 13.5406 107.911 15.7639C108.704 18.1802 109.846 19.0188 112.324 18.778C114.272 18.5486 116.238 18.5055 118.194 18.6493C123.267 19.1475 126.655 22.4522 127.244 27.5296C127.424 29.5839 127.392 31.6512 127.149 33.6989C126.937 35.92 127.684 37.2237 129.805 37.9377C131.711 38.5812 133.67 39.1583 135.443 40.0717C140.425 42.6415 142.148 46.8222 140.475 52.157C139.845 53.9603 139.055 55.7039 138.117 57.3673C136.992 59.5179 137.286 60.946 139.088 62.561C140.89 64.176 142.658 65.7494 144.045 67.6426C146.656 71.2047 146.623 75.0366 144.007 78.5945C142.68 80.3102 141.156 81.8638 139.466 83.2236C137.182 85.1458 136.975 86.3124 138.254 88.9528C139.366 91.2528 140.404 93.6774 140.902 96.16C141.695 100.141 139.939 103.301 136.51 105.319C134.57 106.39 132.523 107.257 130.403 107.905C127.576 108.843 126.97 109.811 127.219 112.8C127.398 114.946 127.518 117.18 127.12 119.268C126.078 124.806 121.955 127.683 115.732 127.613ZM116.791 120.767C120.112 120.991 121.112 119.907 120.785 116.644C120.726 116.075 120.643 115.515 120.569 114.946C119.668 107.888 122.408 103.525 129.154 101.3C130.183 100.959 131.229 100.702 132.246 100.291C134.364 99.4149 135.082 97.3267 134.032 95.309C133.816 94.8938 133.558 94.5077 133.33 94.1008C129.1 86.5158 130.304 81.2308 137.39 76.1825C139.794 74.4761 139.931 72.0848 137.722 70.1086C136.527 69.0375 135.231 68.0577 134.123 66.9119C131.109 63.8231 130.204 60.1572 131.586 56.0512C132.141 54.4424 132.836 52.8852 133.662 51.3973C135.248 48.4911 134.492 46.4486 131.329 45.4148C129.743 44.9428 128.183 44.3885 126.655 43.7542C123.246 42.2264 121.05 39.6025 120.71 35.8412C120.502 33.5495 120.71 31.208 120.838 28.8914C120.992 26.2841 120.008 25.1258 117.364 25.1549C116.172 25.1549 114.973 25.4414 113.802 25.3334C111.61 25.1258 109.298 25.0926 107.284 24.3287C103.079 22.7345 101.514 18.9524 100.547 14.9004C99.7536 11.5791 97.981 10.6865 94.8591 12.0898C93.0242 12.9201 91.1976 13.7919 89.3046 14.4728C85.8465 15.7183 82.6624 15.1495 79.9391 12.6087C78.5603 11.2823 77.2495 9.88699 76.0118 8.42803C74.1769 6.30655 71.7899 6.24012 69.8719 8.30763C68.5477 9.82958 67.1469 11.2832 65.6749 12.6627C64.5485 13.713 63.1672 14.4507 61.6678 14.8024C60.1684 15.1541 58.6031 15.1078 57.1272 14.6679C55.145 14.0982 53.2266 13.3261 51.4025 12.3638C48.2391 10.7031 46.4208 11.3508 45.2044 14.7343C44.5195 16.6275 43.8635 18.5455 42.9959 20.3556C42.3804 21.7114 41.4102 22.8757 40.1877 23.7256C38.9652 24.5755 37.5358 25.0793 36.0506 25.184C34.1487 25.3673 32.234 25.3784 30.33 25.2172C25.7635 24.8643 24.5928 26.0184 25.1034 30.5686C25.1034 30.6226 25.1034 30.6724 25.1242 30.7222C26.0873 38.8179 22.7455 43.5673 14.7956 45.3982C14.6918 45.4231 14.588 45.4273 14.4883 45.4522C11.5409 46.1496 10.5445 48.4413 11.9519 51.0984C12.8269 52.6797 13.5858 54.3225 14.2227 56.0139C15.5968 59.9123 14.8537 63.4868 12.0556 66.5299C10.8378 67.7981 9.52945 68.9761 8.14087 70.0547C5.97385 71.8108 5.9448 74.0983 8.06201 75.9666C9.65094 77.2895 11.1488 78.7181 12.5455 80.2427C15.0114 83.099 15.5428 86.4702 14.2766 89.9866C13.6166 91.8216 12.641 93.5487 11.765 95.3007C10.6608 97.5093 11.6156 99.7844 13.9736 100.457C14.5672 100.627 15.1775 100.756 15.7753 100.926C23.0277 102.977 26.0873 107.606 25.1532 115.112C24.5222 120.206 25.6929 121.252 30.8656 120.75C39.3883 119.92 42.4604 122.851 44.4074 129.053C44.7312 130.087 45.0924 131.129 45.5158 132.113C46.5785 134.633 48.5172 135.243 50.9126 133.969C52.4452 133.113 54.0396 132.374 55.6825 131.756C59.7592 130.307 63.4415 131.1 66.555 134.139C67.7381 135.293 68.7967 136.576 69.9135 137.797C71.7567 139.81 74.1686 139.765 75.9371 137.701C76.8795 136.601 77.826 135.505 78.8182 134.446C82.1393 130.905 86.0333 130.021 90.5126 132.009C92.1732 132.744 93.7922 133.55 95.4652 134.235C97.9312 135.248 99.7246 134.289 100.418 131.744C100.772 130.288 101.223 128.858 101.767 127.463C103.407 123.573 106.304 121.198 110.572 120.821C112.648 120.626 114.728 120.767 116.791 120.767Z" fill="#00376C"/>
<path d="M72.8568 119.413C47.1805 119.347 26.4235 98.4889 26.5522 72.89C26.6809 47.2911 47.4337 26.5953 72.9896 26.6575C98.6701 26.724 119.423 47.5734 119.294 73.1806C119.165 98.7878 98.4002 119.484 72.8568 119.413ZM72.8568 33.2586C64.9933 33.2668 57.3087 35.6058 50.7741 39.9801C44.2394 44.3543 39.1478 50.5675 36.1428 57.8345C33.1378 65.1015 32.3541 73.0963 33.8908 80.8086C35.4275 88.5208 39.2156 95.6045 44.7765 101.165C50.3373 106.725 57.4214 110.511 65.1336 112.047C72.8457 113.582 80.8399 112.796 88.1058 109.79C95.3718 106.783 101.584 101.69 105.956 95.1539C110.329 88.6179 112.666 80.9324 112.673 73.0685C112.661 62.5125 108.462 52.3925 100.997 44.9291C93.5324 37.4657 83.4121 33.2685 72.8568 33.2586Z" fill="#00376C"/>
<path d="M66.1855 81.6499C66.7916 81.0728 67.2067 80.6909 67.6053 80.2923C75.003 72.8969 82.4036 65.5056 89.8069 58.1185C90.3898 57.4681 91.1161 56.9621 91.9282 56.6405C92.5732 56.4125 93.2767 56.4117 93.9222 56.6382C94.5677 56.8647 95.1165 57.305 95.4776 57.886C95.8885 58.4301 96.1108 59.0932 96.1108 59.775C96.1108 60.4568 95.8885 61.12 95.4776 61.664C95.1354 62.1127 94.7533 62.5296 94.336 62.9095L69.4111 87.8607C67.0531 90.2188 65.5337 90.2354 63.2172 87.9188C59.1489 83.8585 55.0847 79.7941 51.0246 75.7255C49.6464 74.3389 49.3641 72.919 50.0906 71.5241C51.1699 69.4483 53.7438 69.1286 55.587 70.9304C58.7337 74.0068 61.8141 77.1371 64.9318 80.255C65.3344 80.6577 65.6915 81.0977 66.1855 81.6499Z" fill="#00376C"/>
</g>
<defs>
<clipPath id="clip0_28_210">
<rect width="146" height="146" fill="white"/>
</clipPath>
</defs>
</svg>
