<svg width="144" height="156" viewBox="0 0 144 156" fill="none" xmlns="http://www.w3.org/2000/svg">
<path d="M72.975 0C78.0865 1.52344 83.1882 3.07734 88.3096 4.57031C105.658 9.59359 123.009 14.6067 140.363 19.6097C143.48 20.5237 143.969 21.1575 143.969 24.2074C143.969 41.2699 144.051 58.3324 143.949 75.3949C143.8 100.337 133.686 121.217 113.372 137.707C102.033 146.893 88.8247 152.752 74.0547 155.695C73.6849 155.768 73.3349 155.909 72.975 156H70.9938C66.6285 154.827 62.1609 153.907 57.9144 152.435C33.5653 143.999 16.3871 128.681 6.37972 106.479C1.9484 96.6255 -0.0229134 86.2814 0.000200819 75.6082C0.026617 58.4055 0.026617 41.2019 0.000200819 23.9972C0.000200819 21.2154 0.538429 20.5329 3.35176 19.7316C25.4027 13.3514 47.4536 6.97125 69.5046 0.591094C70.0116 0.417692 70.5086 0.220401 70.9938 0H72.975ZM6.60425 25.1459V26.2031C6.60425 43.1133 6.47217 60.0234 6.69671 76.9305C6.76275 81.9701 7.24484 87.1315 8.53924 92.0095C16.4476 121.845 36.6296 140.869 68.6824 149.135C70.2145 149.528 71.9844 149.803 73.4967 149.495C110.436 141.984 136.935 111.994 137.322 77.1134C137.506 60.2062 137.348 43.293 137.391 26.389C137.391 25.3744 137.001 24.9966 136.027 24.7162C115.103 18.6997 94.1828 12.678 73.2656 6.65132C72.4406 6.4305 71.5645 6.4305 70.7395 6.65132C59.1956 9.93585 47.6605 13.258 36.1343 16.6177L6.60425 25.1459Z" fill="#00376C"/>
<path d="M125.477 57.7199C125.477 64.3713 125.589 71.0256 125.447 77.6739C125.251 87.4577 122.581 97.0639 117.648 105.727C116.548 107.68 114.699 108.338 112.916 107.46C111.192 106.61 110.717 104.876 111.78 102.972C116.766 94.0356 118.989 84.5416 118.896 74.5052C118.79 62.729 118.85 50.9467 118.896 39.1614C118.896 37.967 118.464 37.5192 117.288 37.181C102.604 32.9732 87.9363 28.7106 73.2489 24.5029C72.48 24.282 71.659 24.2672 70.8813 24.4603C56.0883 28.6985 41.3183 32.9915 26.5285 37.2571C25.4983 37.5618 25.0459 37.897 25.0525 39.006C25.1087 51.9004 24.9766 64.7978 25.1285 77.7013C25.4223 102.731 44.6104 125.495 70.8054 132.006C71.6423 132.195 72.5178 132.182 73.348 131.969C80.0852 130.231 86.4452 127.429 92.1464 123.688C92.5063 123.453 92.8596 123.209 93.2327 122.996C94.8838 122.067 96.7362 122.341 97.7929 123.657C98.8957 125.035 98.6844 126.945 96.9839 127.923C93.0214 130.211 89.0953 132.569 84.9149 134.443C81.3322 136.046 77.4359 137.076 73.6286 138.218C72.5805 138.508 71.4644 138.514 70.4125 138.237C42.2429 130.406 25.1318 113.207 19.482 86.5099C18.7225 82.8993 18.5574 79.1456 18.5244 75.4528C18.4121 62.4548 18.4815 49.4568 18.4815 36.4528C18.4815 33.7319 19.0527 33.0494 21.909 32.2237C37.8908 27.5985 53.8627 22.946 69.8709 18.3878C71.2203 18.0168 72.656 18.0062 74.0117 18.3574C90.1223 22.9277 106.203 27.6168 122.291 32.2785C124.823 33.0128 125.464 33.8294 125.464 36.2395C125.464 43.3996 125.464 50.5588 125.464 57.7169L125.477 57.7199Z" fill="#00376C"/>
<path d="M65.991 72.9757C68.7218 70.4285 71.304 68.0124 73.8961 65.6084C77.8585 61.9399 81.8209 58.2776 85.7834 54.6213C88.1212 52.4672 89.6335 52.455 91.9351 54.5726C95.2371 57.6195 98.5391 60.6663 101.841 63.7132C103.935 65.6541 103.948 67.144 101.841 69.0757C90.8344 79.232 79.8276 89.3882 68.8209 99.5445C66.7934 101.412 65.1292 101.415 63.1348 99.578C56.0905 93.078 49.0461 86.578 42.0018 80.078C39.981 78.2103 39.9843 76.7264 42.0018 74.8435C45.4139 71.6747 48.8348 68.5171 52.2645 65.3707C54.1731 63.6218 55.8967 63.631 57.8251 65.4073C60.5295 67.857 63.1447 70.3249 65.991 72.9757ZM48.87 77.5186L65.7731 93.1643L94.897 66.3122C92.9752 64.5146 90.9015 62.5767 88.7486 60.5689C88.3854 60.8735 87.9429 61.2544 87.5236 61.6413L69.3426 78.4235C66.6349 80.922 65.3504 80.9128 62.6032 78.3748C60.1266 76.0866 57.6501 73.8045 55.3057 71.6077L48.87 77.5186Z" fill="#00376C"/>
<path d="M106.064 119.133C105.203 119.122 104.379 118.806 103.764 118.249C103.149 117.692 102.79 116.938 102.762 116.144C102.775 115.322 103.137 114.538 103.772 113.961C104.407 113.384 105.263 113.062 106.154 113.063C107.016 113.089 107.833 113.427 108.427 114.005C109.022 114.583 109.345 115.354 109.327 116.15C109.327 116.544 109.243 116.934 109.079 117.298C108.915 117.662 108.674 117.992 108.371 118.27C108.067 118.547 107.707 118.766 107.311 118.915C106.915 119.063 106.492 119.137 106.064 119.133Z" fill="#00376C"/>
</svg>
