<svg width="146" height="146" viewBox="0 0 146 146" fill="none" xmlns="http://www.w3.org/2000/svg">
<path d="M145.003 84.1441C144.817 87.0743 144.624 90.0082 144.446 92.9422C144.318 94.8854 144.204 96.8325 144.004 98.7682C143.803 100.704 142.543 101.923 140.924 101.771C139.21 101.607 138.226 100.224 138.4 98.1547C139.795 82.05 139.693 65.8494 138.097 49.7636C137.185 40.6989 135.675 31.6989 134.484 22.6646C134.376 21.7322 134.441 20.7876 134.677 19.8793C135.641 16.069 136.697 12.2587 137.704 8.46739C137.81 8.08636 137.885 7.66341 138.037 6.98899C135.766 7.59864 133.689 8.13208 131.604 8.70363C128.013 9.68669 124.415 10.7117 120.824 11.6338C119.975 11.8794 119.077 11.9017 118.217 11.6985C111.883 9.83911 105.492 9.70193 99.014 10.6926C95.1923 11.2794 91.3568 11.7671 87.5074 12.1558C84.067 12.5117 80.5909 12.1139 77.3175 10.9898C67.3774 7.56053 57.1914 5.57536 46.6686 5.74302C38.6333 5.81032 30.6796 7.37344 23.2088 10.3535C22.255 10.705 21.2201 10.7686 20.231 10.5364C16.292 9.57239 12.3984 8.44453 8.48219 7.38145C8.04705 7.26333 7.60434 7.18332 6.90811 7.03091C7.42271 8.98179 7.73298 10.7536 8.35353 12.4149C10.533 18.2675 10.4498 24.0707 9.38651 30.2357C6.06717 49.7893 4.93252 69.6556 6.00377 89.4634C6.5356 100.904 7.99727 112.282 10.3741 123.482C10.549 124.408 10.5167 125.363 10.2795 126.275C9.32598 130.085 8.27029 133.895 7.25244 137.706C7.15785 138.087 7.08974 138.434 6.96487 138.998C7.48704 138.906 7.88434 138.868 8.26272 138.765C13.5828 137.321 18.8991 135.843 24.2342 134.44C25.0356 134.192 25.8895 134.173 26.7013 134.383C33.6484 136.799 40.7998 136.788 47.9778 136.231C58.7881 135.389 69.5456 135.435 80.303 137.096C88.6573 138.413 97.1159 138.939 105.568 138.666C111.296 138.46 116.919 137.79 122.3 135.53C123.005 135.29 123.766 135.27 124.483 135.473C128.581 136.509 132.671 137.652 136.773 138.742C137.121 138.837 137.484 138.879 138.059 138.986C137.772 137.843 137.541 136.833 137.276 135.85C136.417 132.642 135.501 129.449 134.714 126.225C134.49 125.313 134.481 124.36 134.688 123.444C135.021 122.106 136.058 121.447 137.458 121.481C138.079 121.492 138.678 121.713 139.159 122.109C139.64 122.506 139.973 123.054 140.106 123.665C141.374 128.672 142.63 133.678 143.917 138.681C144.231 139.908 144.651 141.112 145.025 142.328V144.039C143.667 146.062 142.903 146.325 140.485 145.688C135.21 144.248 129.943 142.789 124.657 141.383C124.081 141.217 123.47 141.224 122.898 141.402C117.699 143.307 112.303 144.05 106.809 144.294C97.8433 144.671 88.8627 144.161 79.9965 142.77C69.3299 141.131 58.6746 141.086 47.9588 141.912C40.6409 142.48 33.3419 142.457 26.2321 140.156C25.6863 140.033 25.1176 140.06 24.5862 140.236C17.7109 142.076 10.8471 143.959 3.97186 145.807C1.25886 146.538 -0.50441 144.755 0.218301 142.023C1.66372 136.567 3.14321 131.122 4.58106 125.661C4.74562 125.123 4.78574 124.553 4.69836 123.996C2.08665 111.292 0.573753 98.384 0.176684 85.4168C-0.553594 65.0163 1.00155 44.7835 4.44105 24.6841C4.72862 23 4.95944 21.3806 4.44105 19.6393C2.97671 14.6363 1.67508 9.58001 0.316684 4.54658C-0.337918 2.11941 -0.0617 1.3802 1.95886 0.00467682H3.65781C3.90299 0.1265 4.15578 0.232137 4.41457 0.320928C9.59085 1.74599 14.7633 3.19773 19.9585 4.54277C20.8545 4.72688 21.7813 4.69028 22.6602 4.43608C26.7581 3.38062 30.803 2.09655 34.9273 1.16302C37.6668 0.541935 40.5085 0.374281 43.3047 0.0199214H52.6546C52.9663 0.115504 53.2852 0.185583 53.6081 0.229484C62.1709 0.785791 70.465 2.64142 78.5814 5.41533C81.62 6.46022 84.8554 6.79254 88.0409 6.38696L101.504 4.72185C107.27 4.0017 112.973 4.20365 118.588 5.86495C119.22 6.01281 119.879 5.99444 120.502 5.8116C125.043 4.60246 129.584 3.36538 134.124 2.10035C136.519 1.43736 138.903 0.724822 141.291 0.0351543H144.972V3.7426C144.851 3.98974 144.745 4.24425 144.655 4.50466C143.232 9.76671 141.786 15.0211 140.424 20.3022C140.176 21.2559 140.128 22.2514 140.284 23.2248C142.369 35.0532 143.758 46.9952 144.446 58.9884C144.598 61.6785 144.795 64.3686 144.972 67.0549L145.003 84.1441Z" fill="#00376C"/>
<path d="M58.9171 71.2995C58.5727 69.4973 58.3419 67.8512 57.937 66.2547C57.5019 64.5439 58.0657 63.3855 59.3749 62.2881C66.2577 56.5155 72.1604 49.8818 75.9708 41.6362C77.3064 38.7404 78.0783 35.5702 78.9638 32.4915C79.3119 31.2874 79.6411 30.2053 80.8973 29.7404C82.1535 29.2755 83.2773 29.7404 84.2422 30.6625C92.0369 38.1079 96.8575 47.165 98.5299 57.8377C100.588 70.949 97.198 83.0087 90.879 94.3215C88.2985 98.9396 85.0936 103.2 82.1762 107.658C81.3097 108.987 80.1103 109.46 78.5702 109.448C73.428 109.41 68.2858 109.395 63.1436 109.475C62.3367 109.537 61.5729 109.867 60.9717 110.412C58.323 112.832 55.7727 115.366 53.1278 117.816C51.6824 119.15 49.9721 119.108 48.8596 117.865C47.7472 116.623 47.9402 114.912 49.4499 113.506C51.7202 111.376 53.964 109.189 56.2608 107.082C56.9987 106.408 57.0176 105.878 56.5484 105.021C53.1997 98.8596 49.938 92.6526 46.5742 86.4989C45.7531 85.0015 45.7266 83.7326 46.5742 82.2428C48.5494 78.844 50.3959 75.3842 52.2991 71.9321C53.7786 69.2648 55.1257 68.9295 57.6646 70.5947C58.0695 70.789 58.4062 70.9909 58.9171 71.2995ZM61.0965 101.485C61.456 101.104 61.6868 100.883 61.8874 100.635C66.2872 95.2341 70.0743 89.3552 73.1783 83.1077C76.5573 76.1996 79.1151 69.0477 79.3043 61.2213C79.2926 60.8384 79.3602 60.4574 79.5028 60.1023C79.6454 59.7472 79.8599 59.426 80.1325 59.1589C80.4052 58.8919 80.73 58.685 81.0865 58.5513C81.4429 58.4176 81.823 58.3602 82.2027 58.3826C82.5849 58.3715 82.9649 58.4431 83.3172 58.5926C83.6695 58.7421 83.9858 58.966 84.2448 59.2492C84.5038 59.5324 84.6994 59.8683 84.8184 60.2341C84.9374 60.6 84.977 60.9873 84.9346 61.3699C84.6319 64.6239 84.3671 67.916 83.6217 71.0824C81.2606 81.1111 76.5081 90.0387 70.6696 98.4176C69.4853 100.117 68.2366 101.771 66.9804 103.489C67.1276 103.574 67.2854 103.638 67.4496 103.68C70.7529 103.68 74.0561 103.718 77.3594 103.68C77.8514 103.612 78.2972 103.352 78.6005 102.956C83.0768 97.0383 86.9628 90.7627 89.706 83.8317C94.3185 72.1531 95.098 60.4173 90.0428 48.6434C88.4361 44.8658 86.267 41.3569 83.6103 38.2374C82.7816 40.2569 82.0968 42.1659 81.2303 43.991C77.2989 52.328 71.5399 59.2323 64.695 65.2831C63.9647 65.9232 63.7376 66.4681 63.9571 67.4549C64.6306 70.4651 65.1452 73.5095 65.7506 76.5311C66.0306 77.9181 65.8112 79.0993 64.5701 79.9033C63.329 80.7072 62.1636 80.3719 61.0209 79.587C59.5073 78.5544 57.9673 77.5752 56.3251 76.5006C54.9024 79.065 53.5327 81.4883 52.231 83.9498C52.1779 84.146 52.1642 84.3508 52.1908 84.5524C52.2175 84.7539 52.2839 84.9481 52.3862 85.1234C55.2203 90.5074 58.1111 95.8952 61.0965 101.485Z" fill="#00376C"/>
</svg>
